<?xml version="1.0" standalone="no"?>
<!DOCTYPE svg PUBLIC "-//W3C//DTD SVG 20010904//EN"
 "http://www.w3.org/TR/2001/REC-SVG-20010904/DTD/svg10.dtd">
<svg version="1.0" xmlns="http://www.w3.org/2000/svg"
 width="124.000000pt" height="124.000000pt" viewBox="0 0 124.000000 124.000000"
 preserveAspectRatio="xMidYMid meet">
<metadata>
Created by potrace 1.11, written by Peter Selinger 2001-2013
</metadata>
<g transform="translate(0.000000,124.000000) scale(0.100000,-0.100000)"
fill="#000000" stroke="none">
<path d="M490 1224 c-167 -36 -338 -170 -414 -324 -87 -178 -87 -372 0 -550
51 -104 170 -223 274 -274 178 -87 372 -87 550 0 104 51 223 170 274 274 87
178 87 372 0 550 -51 104 -170 223 -274 274 -129 63 -271 80 -410 50z m90
-556 c0 -144 -2 -167 -20 -195 -26 -44 -58 -63 -118 -70 -72 -8 -137 24 -163
81 -10 23 -19 51 -19 64 0 20 5 22 53 22 47 0 54 -3 69 -30 11 -20 25 -30 41
-30 43 0 47 15 47 172 l0 148 55 0 55 0 0 -162z m340 112 l0 -49 -72 -3 -73
-3 -3 -32 -3 -33 70 0 71 0 0 -50 0 -49 -67 -3 -68 -3 -3 -72 -3 -73 -54 0
-55 0 0 210 0 210 130 0 130 0 0 -50z"/>
</g>
</svg>
