<?xml version="1.0" encoding="UTF-8"?>
<svg width="100px" height="24px" viewBox="0 0 100 24" version="1.1" xmlns="http://www.w3.org/2000/svg" xmlns:xlink="http://www.w3.org/1999/xlink">
    <!-- Generator: Sketch 51.3 (57544) - http://www.bohemiancoding.com/sketch -->
    <title>Group</title>
    <desc>Created with Sketch.</desc>
    <defs>
        <polygon id="path-1" points="0.795009902 0.1687 17.084195 0.1687 17.084195 23.69571 0.795009902 23.69571"></polygon>
        <polygon id="path-3" points="-17 23.7 113.949684 23.7 113.949684 0.1687 -17 0.1687"></polygon>
    </defs>
    <g id="Page-1" stroke="none" stroke-width="1" fill="none" fill-rule="evenodd">
        <g id="Group" transform="translate(17.000000, 0.000000)">
            <text id="{Sandbox}" font-family="Helvetica-Bold, Helvetica" font-size="12" font-weight="bold" fill="#FFFFFF">
                <tspan x="23" y="21">{Sandbox}</tspan>
            </text>
            <mask id="mask-2" fill="white">
                <use xlink:href="#path-1"></use>
            </mask>
            <g id="Clip-4"></g>
            <path d="M4.64786877,15.99971 C4.74686308,18.19411 6.64755399,20.03491 8.97458043,20.03491 C11.3332851,20.03491 13.268294,18.09791 13.268294,15.80601 C13.268294,13.54661 11.3332851,11.60961 8.97458043,11.60961 C6.64755399,11.60961 4.74686308,13.48161 4.64786877,15.64481 L4.64786877,15.99971 Z M0.795009902,23.28361 L0.795009902,1.06661 L4.74686308,0.16831 L4.74686308,9.36191 C5.96779301,8.38171 7.41311005,7.96961 8.98777967,7.96961 C13.4847616,7.96961 17.084195,11.44971 17.084195,15.81771 C17.084195,20.15191 13.4847616,23.69571 8.98777967,23.69571 C7.41311005,23.69571 5.96779301,23.28491 4.74686308,22.30471 L4.74686308,23.28361 L0.795009902,23.28361 Z" id="Fill-3" fill="#ccc" mask="url(#mask-2)"></path>
            <mask id="mask-4" fill="white">
                <use xlink:href="#path-3"></use>
            </mask>
            <g id="Clip-7"></g>
            <path d="M-9.98645055,11.68709 C-8.22171183,11.28539 -6.45961297,12.01209 -5.47890926,13.38879 L-13.2796615,15.16199 C-13.0117169,13.50189 -11.7511893,12.08879 -9.98645055,11.68709 Z M-5.43535176,18.21309 C-6.02535789,19.07369 -6.9347857,19.72499 -8.04352206,19.97589 C-9.82014009,20.38019 -11.5927983,19.64049 -12.5695423,18.24819 L-4.74371145,16.46849 L-3.46998456,16.17859 L-1.03340441,15.62479 C-1.04792358,15.10869 -1.11391979,14.58479 -1.23667274,14.06349 C-2.22793585,9.83199 -6.51504979,7.19299 -10.8114032,8.17059 C-15.1064367,9.14689 -17.7858829,13.36929 -16.7932999,17.60079 C-15.8020368,21.83229 -11.5149228,24.46999 -7.21856941,23.49369 C-4.68695471,22.91779 -2.71894767,21.21479 -1.73032441,19.04899 L-5.43535176,18.21309 Z" id="Fill-12" fill="#ccc" mask="url(#mask-4)"></path>
        </g>
    </g>
</svg>