<?xml version="1.0" encoding="iso-8859-1"?>
<!-- Generator: Adobe Illustrator 18.0.0, SVG Export Plug-In . SVG Version: 6.00 Build 0)  -->
<!DOCTYPE svg PUBLIC "-//W3C//DTD SVG 1.1//EN" "http://www.w3.org/Graphics/SVG/1.1/DTD/svg11.dtd">
<svg version="1.1" id="Capa_1" xmlns="http://www.w3.org/2000/svg" xmlns:xlink="http://www.w3.org/1999/xlink" x="0px" y="0px"
	 viewBox="0 0 60 60" style="enable-background:new 0 0 60 60;" xml:space="preserve">
<g>
	<path d="M19.5,27h14c0.552,0,1-0.447,1-1s-0.448-1-1-1h-14c-0.552,0-1,0.447-1,1S18.948,27,19.5,27z"/>
	<path d="M39,32H14c-0.552,0-1,0.447-1,1s0.448,1,1,1h25c0.552,0,1-0.447,1-1S39.552,32,39,32z"/>
	<path d="M39,39H14c-0.552,0-1,0.447-1,1s0.448,1,1,1h25c0.552,0,1-0.447,1-1S39.552,39,39,39z"/>
	<path d="M55.894,37.041C58.582,33.271,60,28.913,60,24.414C60,11.504,48.337,1,34,1c-9.871,0-18.998,5.142-23.344,13.114
		C4.201,18.379,0,25.255,0,33c0,4.499,1.418,8.856,4.106,12.627c-0.51,5.578-1.86,9.713-3.813,11.666
		c-0.304,0.304-0.38,0.769-0.188,1.153C0.276,58.789,0.625,59,1,59c0.046,0,0.093-0.003,0.139-0.01
		c0.35-0.049,8.433-1.213,14.317-4.586c3.33,1.334,6.875,2.01,10.544,2.01c8.525,0,16.104-3.714,20.848-9.44
		c5.512,2.486,11.738,3.392,12.012,3.43c0.047,0.007,0.094,0.01,0.14,0.01c0.375,0,0.724-0.211,0.895-0.554
		c0.192-0.385,0.116-0.85-0.188-1.153C57.754,46.754,56.404,42.619,55.894,37.041z M26,54.414c-2.891,0-5.694-0.458-8.364-1.349
		c3.334-2.09,3.338-2.255,3.335-2.82c-0.001-0.349-0.19-0.68-0.488-0.86c-0.449-0.271-1.026-0.146-1.328,0.271
		c-0.492,0.385-2.502,1.673-4.294,2.778l0,0c-3.701,2.236-8.645,3.518-11.559,4.128c1.797-3.174,2.535-7.623,2.83-11.136
		c0.02-0.242-0.048-0.482-0.192-0.678C3.362,41.255,2,37.192,2,33c0-7.219,4.028-13.61,10.18-17.491
		c0.388-0.245,0.781-0.48,1.182-0.702c0.09-0.05,0.179-0.102,0.271-0.151c0.42-0.227,0.849-0.437,1.282-0.639
		c0.158-0.074,0.316-0.147,0.475-0.218c0.44-0.195,0.885-0.379,1.336-0.548c0.157-0.059,0.317-0.112,0.476-0.168
		c0.357-0.126,0.717-0.244,1.08-0.354c0.166-0.05,0.33-0.103,0.498-0.151c0.471-0.133,0.946-0.251,1.426-0.357
		c0.166-0.037,0.334-0.07,0.502-0.104c0.432-0.087,0.866-0.165,1.304-0.23c0.1-0.015,0.199-0.034,0.3-0.048
		c0.528-0.073,1.061-0.126,1.596-0.167c0.139-0.011,0.279-0.02,0.419-0.029c0.555-0.034,1.113-0.058,1.674-0.058
		c10.752,0,19.876,6.342,22.919,15.053C49.622,28.65,50,30.786,50,33c0,0.484-0.025,0.964-0.061,1.443
		c-0.009,0.124-0.02,0.248-0.032,0.372c-0.042,0.446-0.096,0.89-0.169,1.33c-0.006,0.034-0.009,0.068-0.015,0.102
		c-0.078,0.459-0.18,0.914-0.292,1.367c-0.033,0.133-0.068,0.266-0.103,0.399c-0.109,0.406-0.23,0.81-0.366,1.21
		c-0.029,0.084-0.057,0.168-0.087,0.252c-0.14,0.395-0.297,0.785-0.463,1.171c-0.061,0.142-0.124,0.284-0.188,0.425
		c-0.186,0.406-0.381,0.809-0.595,1.205c-0.05,0.092-0.105,0.181-0.156,0.272c-0.185,0.33-0.381,0.656-0.586,0.979
		c-0.085,0.133-0.169,0.267-0.257,0.398c-0.248,0.371-0.506,0.737-0.78,1.096C41.528,50.686,34.243,54.414,26,54.414z
		 M48.094,45.343c0.042-0.06,0.076-0.123,0.117-0.184c0.233-0.343,0.456-0.693,0.669-1.047c0.119-0.199,0.23-0.4,0.343-0.601
		c0.124-0.222,0.245-0.445,0.362-0.671c0.105-0.203,0.21-0.407,0.308-0.612c0.152-0.319,0.295-0.641,0.432-0.967
		c0.096-0.229,0.186-0.46,0.274-0.691c0.109-0.286,0.213-0.573,0.31-0.863c0.062-0.188,0.122-0.376,0.179-0.565
		c0.096-0.316,0.182-0.635,0.263-0.957c0.035-0.14,0.075-0.278,0.108-0.419c0.104-0.45,0.191-0.905,0.265-1.364
		c0.023-0.141,0.04-0.283,0.06-0.424c0.051-0.356,0.092-0.715,0.125-1.076c0.013-0.145,0.027-0.289,0.037-0.434
		C51.977,33.981,52,33.493,52,33C52,20.09,40.337,9.586,26,9.586c-0.479,0-0.955,0.014-1.428,0.037
		c-0.171,0.008-0.341,0.024-0.512,0.035c-0.298,0.02-0.595,0.04-0.89,0.069c-0.212,0.021-0.423,0.047-0.634,0.073
		c-0.248,0.03-0.495,0.06-0.74,0.097c-0.235,0.034-0.469,0.073-0.702,0.113c-0.213,0.037-0.425,0.076-0.636,0.117
		c-0.254,0.05-0.508,0.102-0.76,0.158c-0.178,0.04-0.354,0.084-0.53,0.127c-0.275,0.068-0.551,0.135-0.823,0.211
		c-0.122,0.034-0.242,0.072-0.363,0.108c-1.042,0.304-2.061,0.668-3.055,1.091c-0.076,0.032-0.152,0.062-0.228,0.095
		c-0.09,0.039-0.182,0.073-0.272,0.113C18.882,6.45,26.186,3,34,3c13.234,0,24,9.606,24,21.414c0,4.191-1.362,8.255-3.939,11.749
		c-0.144,0.195-0.212,0.436-0.192,0.678c0.295,3.513,1.032,7.96,2.829,11.134C54.51,47.516,51.182,46.678,48.094,45.343z"/>
</g>
<g>
</g>
<g>
</g>
<g>
</g>
<g>
</g>
<g>
</g>
<g>
</g>
<g>
</g>
<g>
</g>
<g>
</g>
<g>
</g>
<g>
</g>
<g>
</g>
<g>
</g>
<g>
</g>
<g>
</g>
</svg>
