<?xml version="1.0" encoding="iso-8859-1"?>
<!-- Generator: Adobe Illustrator 18.0.0, SVG Export Plug-In . SVG Version: 6.00 Build 0)  -->
<!DOCTYPE svg PUBLIC "-//W3C//DTD SVG 1.1//EN" "http://www.w3.org/Graphics/SVG/1.1/DTD/svg11.dtd">
<svg version="1.1" id="Capa_1" xmlns="http://www.w3.org/2000/svg" xmlns:xlink="http://www.w3.org/1999/xlink" x="0px" y="0px"
	 viewBox="0 0 60 60" style="enable-background:new 0 0 60 60;" xml:space="preserve">
<g>
	<path d="M11,23.793h12c0.553,0,1-0.448,1-1s-0.447-1-1-1H11c-0.553,0-1,0.448-1,1S10.447,23.793,11,23.793z"/>
	<path d="M36,28.793H11c-0.553,0-1,0.448-1,1s0.447,1,1,1h25c0.553,0,1-0.448,1-1S36.553,28.793,36,28.793z"/>
	<path d="M36,35.793H11c-0.553,0-1,0.448-1,1s0.447,1,1,1h25c0.553,0,1-0.448,1-1S36.553,35.793,36,35.793z"/>
	<path d="M57.348,1.793H15.652C14.189,1.793,13,2.983,13,4.446v7.347H2.652C1.189,11.793,0,12.983,0,14.446v43.761l9.414-9.414
		h34.934c1.463,0,2.652-1.19,2.652-2.653v-7.347h10.348c1.463,0,2.652-1.19,2.652-2.653V4.446C60,2.983,58.811,1.793,57.348,1.793z
		 M45,46.14c0,0.36-0.293,0.653-0.652,0.653H8.586L2,53.379V14.446c0-0.36,0.293-0.653,0.652-0.653H13h31.348
		c0.359,0,0.652,0.293,0.652,0.653v24.347V46.14z M58,36.14c0,0.36-0.293,0.653-0.652,0.653H47V14.446
		c0-1.463-1.189-2.653-2.652-2.653H15V4.446c0-0.36,0.293-0.653,0.652-0.653h41.695C57.707,3.793,58,4.086,58,4.446V36.14z"/>
</g>
<g>
</g>
<g>
</g>
<g>
</g>
<g>
</g>
<g>
</g>
<g>
</g>
<g>
</g>
<g>
</g>
<g>
</g>
<g>
</g>
<g>
</g>
<g>
</g>
<g>
</g>
<g>
</g>
<g>
</g>
</svg>
