<?xml version="1.0" standalone="no"?>
<!DOCTYPE svg PUBLIC "-//W3C//DTD SVG 20010904//EN"
 "http://www.w3.org/TR/2001/REC-SVG-20010904/DTD/svg10.dtd">
<svg version="1.0" xmlns="http://www.w3.org/2000/svg"
 width="1000.000000pt" height="1000.000000pt" viewBox="0 0 1000.000000 1000.000000"
 preserveAspectRatio="xMidYMid meet">
<metadata>
Created by potrace 1.11, written by Peter Selinger 2001-2013
</metadata>
<g transform="translate(0.000000,1000.000000) scale(0.100000,-0.100000)"
fill="#000000" stroke="none">
<path d="M0 5000 l0 -5000 5000 0 5000 0 0 5000 0 5000 -5000 0 -5000 0 0
-5000z m4100 943 c0 -1064 -4 -1824 -10 -1908 -32 -447 -138 -794 -331 -1085
-83 -126 -263 -306 -388 -389 -229 -152 -488 -239 -806 -272 -163 -16 -499 -6
-675 20 -152 23 -331 59 -349 70 -9 6 -6 80 17 323 27 299 30 317 56 361 53
92 147 114 322 76 95 -21 134 -24 299 -23 218 1 291 15 430 83 235 116 372
366 414 753 7 65 11 713 11 1928 l0 1830 505 0 505 0 0 -1767z m4378 1370 l-3
-398 -1192 -3 -1193 -2 0 -790 0 -790 1010 0 1010 0 0 -400 0 -400 -1007 -2
-1008 -3 -3 -1092 -2 -1093 -500 0 -500 0 0 2685 0 2685 1695 0 1695 0 -2
-397z"/>
</g>
</svg>
