<?xml version="1.0" encoding="utf-8"?>
<!-- Generator: Adobe Illustrator 19.2.1, SVG Export Plug-In . SVG Version: 6.00 Build 0)  -->
<svg version="1.1" id="layer" xmlns="http://www.w3.org/2000/svg" xmlns:xlink="http://www.w3.org/1999/xlink" x="0px" y="0px"
	 viewBox="0 0 652 652" style="enable-background:new 0 0 652 652;" xml:space="preserve">
<style type="text/css">
	.st0{fill:#fff;}
</style>
<g id="Artboard">
	<g id="new-logo_x2F_orange">
		<g id="logo_x2F_new" transform="translate(.347)">
			<path id="Fill-12" class="st0" d="M579.7,319.8c7.8-1.8,16,1.3,20.7,7.8l-35.8,8.1C565.9,328.1,571.6,321.6,579.7,319.8z
				 M600.6,349.6c-2.8,4.1-7.1,7-12,8.1c-8.1,1.8-16.3-1.5-20.8-7.9l35.9-8.1l5.8-1.3l11.2-2.5c-0.1-2.4-0.4-4.8-0.9-7.1
				c-4.5-19.3-24.2-31.4-43.9-26.9c-19.7,4.5-32,23.7-27.4,43c4.5,19.3,24.2,31.4,43.9,26.9c11.6-2.6,20.6-10.4,25.2-20.3
				L600.6,349.6z"/>
			<path id="Fill-10" class="st0" d="M516.1,372.7v-51.2h-11.1V304h11.1v-24h18.8v24H549v17.4h-14.1v51.2H516.1z"/>
			<path id="Fill-7" class="st0" d="M480.3,372.7h18.1V304h-18.1V372.7z M477.9,279.9c0-6.4,5-11.1,11.5-11.1
				c6.5,0,11.3,4.8,11.3,11.1c0,6.4-4.9,11.3-11.3,11.3C482.9,291.2,477.9,286.3,477.9,279.9z"/>
			<path id="Fill-9" class="st0" d="M474,304.2c-9.3,0.5-14.7,1.9-20.3,5.9V304h-18.1v68.7h18.1V339c0-10.6,2.6-16.6,20.3-17.2
				C474,321.8,474,304.2,474,304.2z"/>
			<path id="Fill-5" class="st0" d="M373,339.4c0.5,10,9.2,18.4,19.8,18.4c10.8,0,19.7-8.8,19.7-19.3c0-10.3-8.9-19.2-19.7-19.2
				c-10.7,0-19.4,8.5-19.8,18.4C373,337.8,373,339.4,373,339.4z M355.3,372.7V271.3l18.1-4.1v42c5.6-4.5,12.2-6.4,19.5-6.4
				c20.6,0,37.1,15.9,37.1,35.8c0,19.8-16.5,36-37.1,36c-7.2,0-13.9-1.9-19.5-6.4v4.5L355.3,372.7L355.3,372.7z"/>
			<path id="Fill-1" class="st0" d="M316.7,372.7v-51.6h-11.1V304h11.1v-24l18.8-4.2V304h14.1v17.1h-14.1v51.6H316.7z"/>
			<path id="Fill-3" class="st0" d="M283.5,372.7V336c0-13.3-7.2-16.2-14.4-16.2c-7.2,0-14.4,2.7-14.4,15.9v37h-18.1V304h18.1v5.1
				c4-2.9,8.8-6.4,18.4-6.4c15.3,0,28.6,8.8,28.6,30.3v39.6H283.5z"/>
			<path id="Fill-11" class="st0" d="M190.6,319.8c8.1-1.8,16.2,1.5,20.7,7.8l-35.8,8.1C176.7,328.1,182.5,321.6,190.6,319.8z
				 M211.5,349.6c-2.8,4.1-7.1,7-12,8.1c-7.9,1.8-16.1-1.3-20.8-7.9l35.9-8.1l5.8-1.3l11.2-2.5c-0.1-2.4-0.4-4.8-0.9-7.1
				c-4.6-19.3-24.2-31.4-43.9-26.9c-19.7,4.5-32,23.7-27.4,43c4.5,19.3,24.2,31.4,43.9,26.9c11.6-2.6,20.6-10.4,25.2-20.3
				C228.5,353.4,211.5,349.6,211.5,349.6z"/>
			<path id="Fill-2" class="st0" d="M116.7,372.7L88.5,304h19.7l17.8,46.6l18-46.6h19.7l-28.2,68.7H116.7z"/>
			<path id="Fill-13" class="st0" d="M53,319.8c8.1-1.8,16.2,1.5,20.7,7.8l-35.8,8.1C39.1,328,44.9,321.6,53,319.8z M73.9,349.5
				c-2.8,4.1-7.1,7-12,8.1c-8.1,1.8-16.3-1.5-20.8-7.9l35.9-8.1l5.8-1.3l11.2-2.5c-0.1-2.4-0.4-4.8-0.9-7.1
				c-4.5-19.3-24.2-31.4-43.9-26.9c-19.7,4.5-32,23.7-27.4,43.1s24.2,31.4,43.9,26.9c11.6-2.6,20.6-10.4,25.2-20.3L73.9,349.5
				L73.9,349.5z"/>
		</g>
	</g>
</g>
</svg>
